<svg xmlns="http://www.w3.org/2000/svg" viewBox="0 0 1920 1080" width="1920" height="1080" role="img" aria-labelledby="t d">
    <title id="t">Molla Ashikur Rahman — Frontend Engineer</title>
    <desc id="d">Dark developer profile banner: two flowing cyan wave currents crossing behind a frosted glass identity card.</desc>

    <defs>
        <!-- ===================== BACKGROUND ===================== -->
        <linearGradient id="bgBase" x1="0" y1="0" x2="1920" y2="1080" gradientUnits="userSpaceOnUse">
            <stop offset="0" stop-color="#0B1621" />
            <stop offset="0.55" stop-color="#080D14" />
            <stop offset="1" stop-color="#070B11" />
        </linearGradient>

        <radialGradient id="ambCyan" cx="430" cy="150" r="580" gradientUnits="userSpaceOnUse">
            <stop offset="0" stop-color="#22D3EE" stop-opacity="0.16" />
            <stop offset="1" stop-color="#22D3EE" stop-opacity="0" />
        </radialGradient>
        <radialGradient id="ambSky" cx="1320" cy="520" r="620" gradientUnits="userSpaceOnUse">
            <stop offset="0" stop-color="#38BDF8" stop-opacity="0.145" />
            <stop offset="1" stop-color="#38BDF8" stop-opacity="0" />
        </radialGradient>
        <radialGradient id="ambTeal" cx="760" cy="930" r="540" gradientUnits="userSpaceOnUse">
            <stop offset="0" stop-color="#14B8A6" stop-opacity="0.10" />
            <stop offset="1" stop-color="#14B8A6" stop-opacity="0" />
        </radialGradient>
        <radialGradient id="ambWide" cx="960" cy="540" r="1150" gradientUnits="userSpaceOnUse">
            <stop offset="0" stop-color="#0EA5E9" stop-opacity="0.04" />
            <stop offset="1" stop-color="#0EA5E9" stop-opacity="0" />
        </radialGradient>
        <radialGradient id="vignette" cx="960" cy="540" r="1180" gradientUnits="userSpaceOnUse">
            <stop offset="0.55" stop-color="#000000" stop-opacity="0" />
            <stop offset="1" stop-color="#000000" stop-opacity="0.55" />
        </radialGradient>

        <!-- ===================== WAVE STROKES ===================== -->
        <linearGradient id="gradA" x1="-180" y1="8" x2="1750" y2="900" gradientUnits="userSpaceOnUse">
            <stop offset="0" stop-color="#0EA5E9" stop-opacity="0.12" />
            <stop offset="0.10" stop-color="#38BDF8" stop-opacity="0.72" />
            <stop offset="0.22" stop-color="#67E8F9" stop-opacity="1" />
            <stop offset="0.34" stop-color="#22D3EE" stop-opacity="0.86" />
            <stop offset="0.52" stop-color="#0EA5E9" stop-opacity="0.52" />
            <stop offset="0.74" stop-color="#14B8A6" stop-opacity="0.24" />
            <stop offset="1" stop-color="#0D9488" stop-opacity="0.04" />
        </linearGradient>
        <linearGradient id="gradAHi" x1="-180" y1="8" x2="1750" y2="900" gradientUnits="userSpaceOnUse">
            <stop offset="0" stop-color="#7DD3FC" stop-opacity="0.10" />
            <stop offset="0.12" stop-color="#A5F3FC" stop-opacity="0.82" />
            <stop offset="0.24" stop-color="#E0FDFF" stop-opacity="1" />
            <stop offset="0.38" stop-color="#67E8F9" stop-opacity="0.70" />
            <stop offset="0.60" stop-color="#22D3EE" stop-opacity="0.30" />
            <stop offset="1" stop-color="#14B8A6" stop-opacity="0.02" />
        </linearGradient>
        <linearGradient id="gradB" x1="2100" y1="470" x2="-180" y2="1272" gradientUnits="userSpaceOnUse">
            <stop offset="0" stop-color="#14B8A6" stop-opacity="0.08" />
            <stop offset="0.09" stop-color="#0EA5E9" stop-opacity="0.46" />
            <stop offset="0.20" stop-color="#38BDF8" stop-opacity="0.78" />
            <stop offset="0.32" stop-color="#67E8F9" stop-opacity="0.80" />
            <stop offset="0.50" stop-color="#22D3EE" stop-opacity="0.62" />
            <stop offset="0.74" stop-color="#0EA5E9" stop-opacity="0.30" />
            <stop offset="1" stop-color="#0D9488" stop-opacity="0.04" />
        </linearGradient>
        <linearGradient id="gradBHi" x1="2100" y1="470" x2="-180" y2="1272" gradientUnits="userSpaceOnUse">
            <stop offset="0" stop-color="#7DD3FC" stop-opacity="0.06" />
            <stop offset="0.12" stop-color="#A5F3FC" stop-opacity="0.58" />
            <stop offset="0.24" stop-color="#E0FDFF" stop-opacity="0.76" />
            <stop offset="0.42" stop-color="#67E8F9" stop-opacity="0.50" />
            <stop offset="0.66" stop-color="#22D3EE" stop-opacity="0.20" />
            <stop offset="1" stop-color="#14B8A6" stop-opacity="0.02" />
        </linearGradient>

        <!-- ===================== GLASS CARD ===================== -->
        <linearGradient id="glassFill" x1="431" y1="231" x2="1488" y2="850" gradientUnits="userSpaceOnUse">
            <stop offset="0" stop-color="#1A2636" stop-opacity="0.46" />
            <stop offset="0.45" stop-color="#101A28" stop-opacity="0.38" />
            <stop offset="1" stop-color="#090F18" stop-opacity="0.52" />
        </linearGradient>
        <linearGradient id="glassSheen" x1="431" y1="231" x2="1150" y2="850" gradientUnits="userSpaceOnUse">
            <stop offset="0" stop-color="#FFFFFF" stop-opacity="0.10" />
            <stop offset="0.32" stop-color="#FFFFFF" stop-opacity="0.028" />
            <stop offset="0.62" stop-color="#FFFFFF" stop-opacity="0" />
            <stop offset="1" stop-color="#FFFFFF" stop-opacity="0.018" />
        </linearGradient>
        <radialGradient id="glassCyan" cx="560" cy="300" r="620" gradientUnits="userSpaceOnUse">
            <stop offset="0" stop-color="#67E8F9" stop-opacity="0.11" />
            <stop offset="1" stop-color="#67E8F9" stop-opacity="0" />
        </radialGradient>
        <linearGradient id="cardBorder" x1="431" y1="231" x2="1488" y2="850" gradientUnits="userSpaceOnUse">
            <stop offset="0" stop-color="#FFFFFF" stop-opacity="0.55" />
            <stop offset="0.22" stop-color="#67E8F9" stop-opacity="0.72" />
            <stop offset="0.50" stop-color="#22D3EE" stop-opacity="0.42" />
            <stop offset="0.76" stop-color="#14B8A6" stop-opacity="0.52" />
            <stop offset="1" stop-color="#FFFFFF" stop-opacity="0.30" />
        </linearGradient>
        <!-- local scrim: darkens the glass behind the left-hand type zone only,
             so the right side stays transparent and the wave still reads through -->
        <linearGradient id="textScrim" x1="431" y1="300" x2="1180" y2="700" gradientUnits="userSpaceOnUse">
            <stop offset="0" stop-color="#050A11" stop-opacity="0.50" />
            <stop offset="0.5" stop-color="#050A11" stop-opacity="0.26" />
            <stop offset="1" stop-color="#050A11" stop-opacity="0" />
        </linearGradient>
        <!-- lower contrast bed: soft vertical ramp giving the contact block and stack
             the same dark floor the upper type gets from textScrim. Fades to zero at
             y=600 so it never reads as a panel edge. -->
        <linearGradient id="lowerBed" x1="431" y1="600" x2="431" y2="850" gradientUnits="userSpaceOnUse">
            <stop offset="0" stop-color="#050A11" stop-opacity="0" />
            <stop offset="0.4" stop-color="#050A11" stop-opacity="0.13" />
            <stop offset="1" stop-color="#050A11" stop-opacity="0.20" />
        </linearGradient>
        <!-- localised bed under the stack, where textScrim reaches zero -->
        <radialGradient id="stackBed" cx="1335.5" cy="734.5" r="150" gradientUnits="userSpaceOnUse">
            <stop offset="0" stop-color="#050A11" stop-opacity="0.18" />
            <stop offset="1" stop-color="#050A11" stop-opacity="0" />
        </radialGradient>
        <!-- barely-perceptible cyan lift behind each stack mark (objectBoundingBox, reused) -->
        <radialGradient id="stackGlow">
            <stop offset="0" stop-color="#22D3EE" stop-opacity="0.09" />
            <stop offset="0.5" stop-color="#22D3EE" stop-opacity="0.04" />
            <stop offset="1" stop-color="#22D3EE" stop-opacity="0" />
        </radialGradient>
        <!-- stack marks: restrained brand identity inside the cyan/sky language -->
        <linearGradient id="gReact" x1="1255" y1="715" x2="1293" y2="754" gradientUnits="userSpaceOnUse">
            <stop offset="0" stop-color="#38BDF8" />
            <stop offset="1" stop-color="#22D3EE" />
        </linearGradient>
        <linearGradient id="gNext" x1="1317" y1="716" x2="1354" y2="753" gradientUnits="userSpaceOnUse">
            <stop offset="0" stop-color="#DCEAF2" />
            <stop offset="1" stop-color="#A5D8E8" />
        </linearGradient>
        <linearGradient id="gTS" x1="1378" y1="715" x2="1416" y2="754" gradientUnits="userSpaceOnUse">
            <stop offset="0" stop-color="#60A5FA" />
            <stop offset="1" stop-color="#38BDF8" />
        </linearGradient>
        <!-- monogram stroke: cyan-integrated so the R belongs to the same material
             system as the card border and waves. Coords are in GLYPH space because
             the path carries its own transform. -->
        <linearGradient id="gMono" x1="79" y1="754" x2="706" y2="0" gradientUnits="userSpaceOnUse">
            <stop offset="0" stop-color="#7DD3FC" />
            <stop offset="1" stop-color="#38BDF8" />
        </linearGradient>
        <!-- static refraction band across the glass -->
        <linearGradient id="refract" x1="431" y1="850" x2="1488" y2="231" gradientUnits="userSpaceOnUse">
            <stop offset="0.34" stop-color="#FFFFFF" stop-opacity="0" />
            <stop offset="0.45" stop-color="#FFFFFF" stop-opacity="0.038" />
            <stop offset="0.56" stop-color="#FFFFFF" stop-opacity="0" />
        </linearGradient>
        <linearGradient id="topEdge" x1="431" y1="231" x2="1488" y2="231" gradientUnits="userSpaceOnUse">
            <stop offset="0" stop-color="#FFFFFF" stop-opacity="0" />
            <stop offset="0.28" stop-color="#FFFFFF" stop-opacity="0.22" />
            <stop offset="0.70" stop-color="#FFFFFF" stop-opacity="0.10" />
            <stop offset="1" stop-color="#FFFFFF" stop-opacity="0" />
        </linearGradient>

        <!-- ===================== FILTERS ===================== -->
        <filter id="frost" x="-15%" y="-25%" width="130%" height="150%" color-interpolation-filters="sRGB">
            <feGaussianBlur stdDeviation="17" />
        </filter>
        <filter id="bloom" x="-20%" y="-40%" width="140%" height="180%" color-interpolation-filters="sRGB">
            <feGaussianBlur stdDeviation="13" />
        </filter>
        <filter id="haze" x="-25%" y="-50%" width="150%" height="200%" color-interpolation-filters="sRGB">
            <feGaussianBlur stdDeviation="34" />
        </filter>
        <filter id="shadow" x="-20%" y="-30%" width="140%" height="170%" color-interpolation-filters="sRGB">
            <feGaussianBlur stdDeviation="30" />
        </filter>

        <!-- ===================== GEOMETRY ===================== -->
        <clipPath id="cardClip">
            <rect x="431" y="231" width="1057" height="619" rx="26" />
        </clipPath>
        <mask id="outsideCard" maskUnits="userSpaceOnUse" x="0" y="0" width="1920" height="1080">
            <rect width="1920" height="1080" fill="#FFFFFF" />
            <rect x="431" y="231" width="1057" height="619" rx="26" fill="#000000" />
        </mask>

        <!-- Wave A — enters beyond the upper-left, spreads and bends toward centre -->
        <g id="waveA" fill="none" stroke="url(#gradA)" stroke-linecap="round">
            <path d="M -180,8 C -120.0,14.7 56.7,28.3 180,48 C 303.3,67.7 431.7,106.3 560,126 C 688.3,145.7 818.3,142.3 950,166 C 1081.7,189.7 1216.7,238.0 1350,268 C 1483.3,298.0 1683.3,333.0 1750,346" stroke-width="1.5" opacity="0.42" />
            <path d="M -180,19 C -120.0,26.2 56.7,40.8 180,62 C 303.3,83.2 431.7,123.7 560,146 C 688.3,168.3 818.3,168.7 950,196 C 1081.7,223.3 1216.7,276.7 1350,310 C 1483.3,343.3 1683.3,381.7 1750,396" stroke-width="1.8" opacity="0.58" />
            <path d="M -180,26 C -120.0,34.0 56.7,51.0 180,74 C 303.3,97.0 431.7,138.3 560,164 C 688.3,189.7 818.3,196.0 950,228 C 1081.7,260.0 1216.7,318.0 1350,356 C 1483.3,394.0 1683.3,439.3 1750,456" stroke-width="2.3" opacity="0.82" />
            <path d="M -180,52 C -120.0,60.7 56.7,79.3 180,104 C 303.3,128.7 431.7,174.3 560,200 C 688.3,225.7 818.3,227.0 950,258 C 1081.7,289.0 1216.7,348.0 1350,386 C 1483.3,424.0 1683.3,469.3 1750,486" stroke-width="1.6" opacity="0.5" />
            <path d="M -180,61 C -120.0,70.2 56.7,89.8 180,116 C 303.3,142.2 431.7,190.0 560,218 C 688.3,246.0 818.3,250.3 950,284 C 1081.7,317.7 1216.7,379.3 1350,420 C 1483.3,460.7 1683.3,510.0 1750,528" stroke-width="2.1" opacity="0.72" />
            <path d="M -180,70 C -120.0,79.7 56.7,100.0 180,128 C 303.3,156.0 431.7,207.3 560,238 C 688.3,268.7 818.3,275.7 950,312 C 1081.7,348.3 1216.7,411.7 1350,456 C 1483.3,500.3 1683.3,557.7 1750,578" stroke-width="2.4" opacity="0.9" />
            <path d="M -180,96 C -120.0,106.7 56.7,129.7 180,160 C 303.3,190.3 431.7,245.0 560,278 C 688.3,311.0 818.3,320.3 950,358 C 1081.7,395.7 1216.7,459.7 1350,504 C 1483.3,548.3 1683.3,604.0 1750,624" stroke-width="1.7" opacity="0.54" />
            <path d="M -180,104 C -120.0,115.3 56.7,140.0 180,172 C 303.3,204.0 431.7,260.7 560,296 C 688.3,331.3 818.3,343.7 950,384 C 1081.7,424.3 1216.7,490.0 1350,538 C 1483.3,586.0 1683.3,649.7 1750,672" stroke-width="2.0" opacity="0.68" />
            <path d="M -180,112 C -120.0,124.3 56.7,151.7 180,186 C 303.3,220.3 431.7,279.7 560,318 C 688.3,356.3 818.3,372.3 950,416 C 1081.7,459.7 1216.7,528.0 1350,580 C 1483.3,632.0 1683.3,703.3 1750,728" stroke-width="2.2" opacity="0.78" />
            <path d="M -180,138 C -120.0,151.3 56.7,181.3 180,218 C 303.3,254.7 431.7,318.0 560,358 C 688.3,398.0 818.3,413.7 950,458 C 1081.7,502.3 1216.7,571.0 1350,624 C 1483.3,677.0 1683.3,750.7 1750,776" stroke-width="1.5" opacity="0.44" />
            <path d="M -180,150 C -120.0,164.3 56.7,197.0 180,236 C 303.3,275.0 431.7,341.0 560,384 C 688.3,427.0 818.3,446.3 950,494 C 1081.7,541.7 1216.7,613.3 1350,670 C 1483.3,726.7 1683.3,806.7 1750,834" stroke-width="1.8" opacity="0.56" />
            <path d="M -180,176 C -120.0,191.3 56.7,226.3 180,268 C 303.3,309.7 431.7,379.7 560,426 C 688.3,472.3 818.3,495.7 950,546 C 1081.7,596.3 1216.7,669.3 1350,728 C 1483.3,786.7 1683.3,869.7 1750,898" stroke-width="1.4" opacity="0.34" />
        </g>
        <g id="waveAHi" fill="none" stroke="url(#gradAHi)" stroke-linecap="round">
            <path d="M -180,32 C -120.0,39.7 56.7,55.0 180,78 C 303.3,101.0 431.7,143.7 560,170 C 688.3,196.3 818.3,203.7 950,236 C 1081.7,268.3 1216.7,325.7 1350,364 C 1483.3,402.3 1683.3,449.0 1750,466" stroke-width="3.0" />
            <path d="M -180,86 C -120.0,95.3 56.7,114.0 180,142 C 303.3,170.0 431.7,221.7 560,254 C 688.3,286.3 818.3,297.3 950,336 C 1081.7,374.7 1216.7,440.3 1350,486 C 1483.3,531.7 1683.3,589.3 1750,610" stroke-width="2.4" opacity="0.8" />
        </g>

        <!-- Wave B — emerges beyond the lower-right, sweeps back across the floor -->
        <g id="waveB" fill="none" stroke="url(#gradB)" stroke-linecap="round">
            <path d="M 2100,470 C 2033.3,478.3 1833.3,498.0 1700,520 C 1566.7,542.0 1433.3,572.0 1300,602 C 1166.7,632.0 1033.3,670.0 900,700 C 766.7,730.0 680.0,759.3 500,782 C 320.0,804.7 -66.7,827.0 -180,836" stroke-width="1.4" opacity="0.34" />
            <path d="M 2100,486 C 2033.3,495.3 1833.3,517.7 1700,542 C 1566.7,566.3 1433.3,598.7 1300,632 C 1166.7,665.3 1033.3,708.0 900,742 C 766.7,776.0 680.0,809.7 500,836 C 320.0,862.3 -66.7,889.3 -180,900" stroke-width="1.9" opacity="0.6" />
            <path d="M 2100,496 C 2033.3,506.0 1833.3,530.0 1700,556 C 1566.7,582.0 1433.3,616.0 1300,652 C 1166.7,688.0 1033.3,734.7 900,772 C 766.7,809.3 680.0,846.7 500,876 C 320.0,905.3 -66.7,936.0 -180,948" stroke-width="1.6" opacity="0.44" />
            <path d="M 2100,524 C 2033.3,535.0 1833.3,561.0 1700,590 C 1566.7,619.0 1433.3,658.0 1300,698 C 1166.7,738.0 1033.3,788.7 900,830 C 766.7,871.3 680.0,913.3 500,946 C 320.0,978.7 -66.7,1012.7 -180,1026" stroke-width="2.0" opacity="0.68" />
            <path d="M 2100,536 C 2033.3,547.7 1833.3,575.3 1700,606 C 1566.7,636.7 1433.3,677.7 1300,720 C 1166.7,762.3 1033.3,816.0 900,860 C 766.7,904.0 680.0,949.0 500,984 C 320.0,1019.0 -66.7,1055.7 -180,1070" stroke-width="1.5" opacity="0.4" />
            <path d="M 2100,562 C 2033.3,574.7 1833.3,604.7 1700,638 C 1566.7,671.3 1433.3,716.0 1300,762 C 1166.7,808.0 1033.3,866.3 900,914 C 766.7,961.7 680.0,1010.0 500,1048 C 320.0,1086.0 -66.7,1126.3 -180,1142" stroke-width="1.8" opacity="0.56" />
            <path d="M 2100,576 C 2033.3,589.3 1833.3,620.7 1700,656 C 1566.7,691.3 1433.3,739.3 1300,788 C 1166.7,836.7 1033.3,897.7 900,948 C 766.7,998.3 680.0,1049.3 500,1090 C 320.0,1130.7 -66.7,1175.0 -180,1192" stroke-width="1.4" opacity="0.32" />
            <path d="M 2100,604 C 2033.3,618.3 1833.3,652.0 1700,690 C 1566.7,728.0 1433.3,779.7 1300,832 C 1166.7,884.3 1033.3,949.7 900,1004 C 766.7,1058.3 680.0,1113.3 500,1158 C 320.0,1202.7 -66.7,1253.0 -180,1272" stroke-width="1.6" opacity="0.42" />
        </g>
        <g id="waveBHi" fill="none" stroke="url(#gradBHi)" stroke-linecap="round">
            <path d="M 2100,506 C 2033.3,516.7 1833.3,543.0 1700,570 C 1566.7,597.0 1433.3,631.3 1300,668 C 1166.7,704.7 1033.3,751.3 900,790 C 766.7,828.7 680.0,869.7 500,900 C 320.0,930.3 -66.7,960.0 -180,972" stroke-width="2.6" />
        </g>
    </defs>

    <style>
        text { font-family: 'Inter', 'Geist', 'Manrope', 'Segoe UI', 'Helvetica Neue', Helvetica, Arial, sans-serif; }

        .deep { animation: deepCycle 16s ease-in-out infinite; }
        .wave { animation: waveCycle 16s ease-in-out infinite; }
        .hi   { animation: hiCycle   16s ease-in-out infinite; }
        .amb  { animation: ambCycle  16s ease-in-out infinite; }

        /* each layer drifts on its own amplitude and phase, so the field deforms
           instead of sliding as one rigid object */
        .driftDeep { animation: driftDeep 16s ease-in-out infinite; }
        .driftA    { animation: driftA    16s ease-in-out infinite; }
        .driftB    { animation: driftB    16s ease-in-out infinite; }
        .driftHiA  { animation: driftHiA  16s ease-in-out infinite; }
        .driftHiB  { animation: driftHiB  16s ease-in-out infinite; }

        /* 16s non-linear breathing loop:
           0-15% slow emergence · 15-40% accelerating rise · 40-68% long restrained
           plateau · 68-94% slow dissolution · 94-100% near-black hold */
        @keyframes waveCycle {
            0%   { opacity: .015; }
            8%   { opacity: .06; }
            15%  { opacity: .16; }
            25%  { opacity: .42; }
            32%  { opacity: .66; }
            40%  { opacity: .92; }
            48%  { opacity: 1; }
            54%  { opacity: .95; }
            61%  { opacity: 1; }
            68%  { opacity: .96; }
            78%  { opacity: .62; }
            86%  { opacity: .30; }
            94%  { opacity: .03; }
            100% { opacity: .015; }
        }
        @keyframes deepCycle {
            0%   { opacity: .01; }
            15%  { opacity: .10; }
            28%  { opacity: .26; }
            40%  { opacity: .38; }
            52%  { opacity: .42; }
            64%  { opacity: .38; }
            76%  { opacity: .26; }
            88%  { opacity: .10; }
            94%  { opacity: .015; }
            100% { opacity: .01; }
        }
        @keyframes hiCycle {
            0%   { opacity: 0; }
            12%  { opacity: .02; }
            20%  { opacity: .12; }
            30%  { opacity: .38; }
            40%  { opacity: .78; }
            50%  { opacity: 1; }
            58%  { opacity: .94; }
            66%  { opacity: .99; }
            78%  { opacity: .50; }
            88%  { opacity: .16; }
            94%  { opacity: 0; }
            100% { opacity: 0; }
        }
        @keyframes ambCycle {
            0%   { opacity: .02; }
            15%  { opacity: .18; }
            30%  { opacity: .56; }
            42%  { opacity: .92; }
            54%  { opacity: 1; }
            66%  { opacity: .94; }
            80%  { opacity: .52; }
            90%  { opacity: .16; }
            94%  { opacity: .03; }
            100% { opacity: .02; }
        }
        @keyframes driftDeep {
            0%   { transform: translate(0px, 0px); }
            45%  { transform: translate(26px, 14px); }
            100% { transform: translate(0px, 0px); }
        }
        @keyframes driftA {
            0%   { transform: translate(0px, 0px); }
            55%  { transform: translate(-13px, 8px); }
            100% { transform: translate(0px, 0px); }
        }
        @keyframes driftB {
            0%   { transform: translate(0px, 0px); }
            38%  { transform: translate(15px, -9px); }
            100% { transform: translate(0px, 0px); }
        }
        @keyframes driftHiA {
            0%   { transform: translate(0px, 0px); }
            62%  { transform: translate(9px, -6px); }
            100% { transform: translate(0px, 0px); }
        }
        @keyframes driftHiB {
            0%   { transform: translate(0px, 0px); }
            48%  { transform: translate(-8px, 5px); }
            100% { transform: translate(0px, 0px); }
        }
        @media (prefers-reduced-motion: reduce) {
            .deep, .wave, .hi, .amb,
            .driftDeep, .driftA, .driftB, .driftHiA, .driftHiB { animation: none; }
        }
    </style>

    <!-- ===================== BACKGROUND ===================== -->
    <rect width="1920" height="1080" fill="#080D14" />
    <rect width="1920" height="1080" fill="url(#bgBase)" />

    <g class="amb">
        <rect width="1920" height="1080" fill="url(#ambWide)" />
        <rect width="1920" height="1080" fill="url(#ambCyan)" />
        <rect width="1920" height="1080" fill="url(#ambSky)" />
        <rect width="1920" height="1080" fill="url(#ambTeal)" />
    </g>

    <!-- ===================== WAVE FIELD (outside the glass) ===================== -->
    <g mask="url(#outsideCard)">
        <g class="deep">
            <g class="driftDeep">
                <use href="#waveA" filter="url(#haze)" />
                <use href="#waveB" filter="url(#haze)" />
            </g>
        </g>
        <g class="hi" opacity="0.9">
            <g class="driftHiA"><use href="#waveAHi" filter="url(#bloom)" /></g>
            <g class="driftHiB"><use href="#waveBHi" filter="url(#bloom)" /></g>
        </g>
        <g class="wave">
            <g class="driftA"><use href="#waveA" /></g>
            <g class="driftB"><use href="#waveB" /></g>
        </g>
        <g class="hi">
            <g class="driftHiA"><use href="#waveAHi" /></g>
            <g class="driftHiB"><use href="#waveBHi" /></g>
        </g>
    </g>

    <rect width="1920" height="1080" fill="url(#vignette)" />

    <!-- ===================== GLASS CARD ===================== -->
    <rect x="447" y="259" width="1025" height="603" rx="26" fill="#000000" opacity="0.5" filter="url(#shadow)" />

    <g clip-path="url(#cardClip)">
        <!-- refracted wave seen through frosted glass -->
        <g opacity="0.88" filter="url(#frost)">
            <g class="wave">
                <g class="driftA"><use href="#waveA" /></g>
                <g class="driftB"><use href="#waveB" /></g>
            </g>
            <g class="hi">
                <g class="driftHiA"><use href="#waveAHi" /></g>
                <g class="driftHiB"><use href="#waveBHi" /></g>
            </g>
        </g>

        <rect x="431" y="231" width="1057" height="619" fill="url(#glassFill)" />
        <rect x="431" y="231" width="1057" height="619" fill="url(#glassCyan)" />
        <rect x="431" y="231" width="1057" height="619" fill="url(#textScrim)" />
        <rect x="431" y="231" width="1057" height="619" fill="url(#lowerBed)" />
        <rect x="431" y="231" width="1057" height="619" fill="url(#stackBed)" />
        <rect x="431" y="231" width="1057" height="619" fill="url(#glassSheen)" />
        <rect x="431" y="231" width="1057" height="619" fill="url(#refract)" />

        <!-- localised cyan lift behind the stack marks -->
        <g>
            <circle cx="1274" cy="734.5" r="48" fill="url(#stackGlow)" />
            <circle cx="1335.5" cy="734.5" r="48" fill="url(#stackGlow)" />
            <circle cx="1397" cy="734.5" r="48" fill="url(#stackGlow)" />
        </g>

        <!-- monogram: structural element embedded in the glass, cropped by the right edge -->
        <path transform="translate(1150,640) scale(0.62,-0.62)" fill="none" stroke="url(#gMono)" stroke-opacity="0.11" stroke-width="4.5"
            d="M275 417H312Q370 417 401.0 441.0Q432 465 432 510Q432 555 401.0 579.0Q370 603 312 603H275ZM706 0H462L275 290V0H79V754H384Q447 754 494.0 735.5Q541 717 571.5 685.0Q602 653 617.5 611.0Q633 569 633 521Q633 435 591.5 381.5Q550 328 469 309Z" />

        <rect x="431" y="232.2" width="1057" height="1.2" fill="url(#topEdge)" />
    </g>

    <rect x="431.9" y="231.9" width="1055.2" height="617.2" rx="25.1" fill="none" stroke="url(#cardBorder)" stroke-width="1.8" />

    <!-- ===================== CARD CONTENT =====================
         Grid: left margin 503 (72 from card edge) - right content edge 1416
         Left zone = identity - right zone = brand mark + stack signature -->

    <!-- editorial marker -->
    <rect x="503" y="299" width="40" height="2" fill="#38BDF8" fill-opacity="0.55" />

    <!-- identity block -->
    <text x="503" y="340" font-size="20" font-weight="600" letter-spacing="3.6" fill="#94A3B8">MOLLA</text>
    <text x="503" y="401" font-size="48" font-weight="800" letter-spacing="-0.4" fill="#F1F5F9">ASHIKUR RAHMAN</text>
    <text x="503" y="459" font-size="28" font-weight="500" letter-spacing="0.4" fill="#CBD5E1">Frontend Engineer</text>

    <!-- contact block: 32px rows, icons 23px (same 0.72 icon:text ratio),
         baselines and left margin unchanged, 17px icon-to-text gap preserved -->
    <g fill="#7DD3FC" fill-opacity="0.88">
        <g transform="translate(503,696.98) scale(0.0449)">
            <path d="M48 64C21.5 64 0 85.5 0 112c0 15.1 7.1 29.3 19.2 38.4L236.8 313.6c11.4 8.5 27 8.5 38.4 0L492.8 150.4c12.1-9.1 19.2-23.3 19.2-38.4 0-26.5-21.5-48-48-48H48zM0 176V384c0 35.3 28.7 64 64 64H448c35.3 0 64-28.7 64-64V176L294.4 339.2c-22.8 17.1-54 17.1-76.8 0L0 176z" />
        </g>
        <g transform="translate(503.01,748.98) scale(0.0513)">
            <path d="M100.28 448H7.4V148.9h92.88zM53.79 108.1C24.09 108.1 0 83.5 0 53.8a53.79 53.79 0 0 1 107.58 0c0 29.7-24.1 54.3-53.79 54.3zM447.9 448h-92.68V302.4c0-34.7-.7-79.2-48.29-79.2-48.29 0-55.69 37.7-55.69 76.7V448h-92.78V148.9h89.08v40.8h1.3c12.4-23.5 42.69-48.3 87.88-48.3 94 0 111.28 61.9 111.28 142.3V448z" />
        </g>
    </g>
    <g font-size="32" font-weight="500" letter-spacing="0.2" fill="#E2E8F0" fill-opacity="0.94">
        <text x="543" y="720">riyalashikur@gmail.com</text>
        <text x="543" y="772">www.linkedin.com/in/riyalashikur</text>
    </g>

    <!-- stack signature: 38px optical, even 24px gaps, right-anchored to 1416.
         Centreline y=734.5 matches the contact block's optical centre exactly.
         Strokes scaled x1.152 with the marks so weight stays proportional. -->
    <g opacity="0.92">
        <g transform="translate(1274,734.5)" fill="none" stroke="url(#gReact)" stroke-width="2.8">
            <circle r="3.8" fill="url(#gReact)" stroke="none" />
            <ellipse rx="19" ry="7.3" />
            <ellipse rx="19" ry="7.3" transform="rotate(60)" />
            <ellipse rx="19" ry="7.3" transform="rotate(120)" />
        </g>
        <g transform="translate(1335.5,734.5)" fill="none" stroke="url(#gNext)">
            <circle r="18.5" stroke-width="2.8" />
            <path d="M -6.6,9.9 V -9.9 L 9.0,11.9" stroke-width="2.8" stroke-linecap="square" />
            <path d="M 6.8,-9.9 V 1.9" stroke-width="2.8" stroke-linecap="square" />
        </g>
        <g transform="translate(1397,734.5)">
            <rect x="-19" y="-19" width="38" height="38" rx="6.9" fill="none" stroke="url(#gTS)" stroke-width="2.9" />
            <text x="0" y="6.8" font-size="20" font-weight="700" letter-spacing="0.3" text-anchor="middle" fill="url(#gTS)">TS</text>
        </g>
    </g>
</svg>
